<mxfile host="app.diagrams.net" agent="Mozilla/5.0 (Windows NT 10.0; Win64; x64) AppleWebKit/537.36 (KHTML, like Gecko) Chrome/136.0.0.0 Safari/537.36 Edg/136.0.0.0" version="27.0.9">
  <diagram id="tu2wQ8LnA8tp2BV-aJbI" name="페이지-1">
    <mxGraphModel dx="1971" dy="782" grid="1" gridSize="10" guides="1" tooltips="1" connect="1" arrows="1" fold="1" page="1" pageScale="1" pageWidth="827" pageHeight="1169" math="0" shadow="0">
      <root>
        <mxCell id="0" />
        <mxCell id="1" parent="0" />
        <mxCell id="rpM9JcjBu72Rt_czWlIL-38" style="rounded=0;orthogonalLoop=1;jettySize=auto;html=1;entryX=0;entryY=0.5;entryDx=0;entryDy=0;endArrow=none;startFill=0;" edge="1" parent="1" source="rpM9JcjBu72Rt_czWlIL-22" target="rpM9JcjBu72Rt_czWlIL-16">
          <mxGeometry relative="1" as="geometry" />
        </mxCell>
        <mxCell id="rpM9JcjBu72Rt_czWlIL-37" style="rounded=0;orthogonalLoop=1;jettySize=auto;html=1;entryX=0;entryY=0.5;entryDx=0;entryDy=0;endArrow=none;startFill=0;" edge="1" parent="1" source="rpM9JcjBu72Rt_czWlIL-23" target="rpM9JcjBu72Rt_czWlIL-16">
          <mxGeometry relative="1" as="geometry" />
        </mxCell>
        <mxCell id="rpM9JcjBu72Rt_czWlIL-32" value="Extends" style="endArrow=block;endSize=16;endFill=0;html=1;rounded=0;exitX=0.5;exitY=0;exitDx=0;exitDy=0;entryX=0.5;entryY=1;entryDx=0;entryDy=0;" edge="1" parent="1" source="rpM9JcjBu72Rt_czWlIL-17" target="rpM9JcjBu72Rt_czWlIL-16">
          <mxGeometry x="-0.005" width="160" relative="1" as="geometry">
            <mxPoint x="100" y="677.5" as="sourcePoint" />
            <mxPoint x="260" y="677.5" as="targetPoint" />
            <mxPoint as="offset" />
          </mxGeometry>
        </mxCell>
        <mxCell id="rpM9JcjBu72Rt_czWlIL-33" value="Extends" style="endArrow=block;endSize=16;endFill=0;html=1;rounded=0;exitX=0.5;exitY=0;exitDx=0;exitDy=0;entryX=0.5;entryY=1;entryDx=0;entryDy=0;" edge="1" parent="1" source="rpM9JcjBu72Rt_czWlIL-18" target="rpM9JcjBu72Rt_czWlIL-16">
          <mxGeometry width="160" relative="1" as="geometry">
            <mxPoint x="520" y="687.5" as="sourcePoint" />
            <mxPoint x="610" y="647.5" as="targetPoint" />
          </mxGeometry>
        </mxCell>
        <mxCell id="rpM9JcjBu72Rt_czWlIL-34" value="Extends" style="endArrow=block;endSize=16;endFill=0;html=1;rounded=0;exitX=0.5;exitY=0;exitDx=0;exitDy=0;entryX=0.5;entryY=1;entryDx=0;entryDy=0;" edge="1" parent="1" source="rpM9JcjBu72Rt_czWlIL-20" target="rpM9JcjBu72Rt_czWlIL-16">
          <mxGeometry x="-0.5214" y="22" width="160" relative="1" as="geometry">
            <mxPoint x="460" y="747.5" as="sourcePoint" />
            <mxPoint x="550" y="707.5" as="targetPoint" />
            <mxPoint as="offset" />
          </mxGeometry>
        </mxCell>
        <mxCell id="rpM9JcjBu72Rt_czWlIL-35" value="Extends" style="endArrow=block;endSize=16;endFill=0;html=1;rounded=0;exitX=0.5;exitY=0;exitDx=0;exitDy=0;entryX=0.5;entryY=1;entryDx=0;entryDy=0;" edge="1" parent="1" source="rpM9JcjBu72Rt_czWlIL-19" target="rpM9JcjBu72Rt_czWlIL-16">
          <mxGeometry x="-0.5214" y="-22" width="160" relative="1" as="geometry">
            <mxPoint x="305" y="717.5" as="sourcePoint" />
            <mxPoint x="395" y="677.5" as="targetPoint" />
            <mxPoint as="offset" />
          </mxGeometry>
        </mxCell>
        <mxCell id="rpM9JcjBu72Rt_czWlIL-27" style="rounded=0;orthogonalLoop=1;jettySize=auto;html=1;entryX=0;entryY=0.5;entryDx=0;entryDy=0;endArrow=none;startFill=0;" edge="1" parent="1" source="rpM9JcjBu72Rt_czWlIL-22" target="rpM9JcjBu72Rt_czWlIL-14">
          <mxGeometry relative="1" as="geometry" />
        </mxCell>
        <mxCell id="rpM9JcjBu72Rt_czWlIL-25" style="rounded=0;orthogonalLoop=1;jettySize=auto;html=1;" edge="1" parent="1" source="rpM9JcjBu72Rt_czWlIL-22" target="rpM9JcjBu72Rt_czWlIL-21">
          <mxGeometry relative="1" as="geometry" />
        </mxCell>
        <mxCell id="rpM9JcjBu72Rt_czWlIL-26" style="rounded=0;orthogonalLoop=1;jettySize=auto;html=1;" edge="1" parent="1" source="rpM9JcjBu72Rt_czWlIL-23" target="rpM9JcjBu72Rt_czWlIL-21">
          <mxGeometry relative="1" as="geometry" />
        </mxCell>
        <mxCell id="rpM9JcjBu72Rt_czWlIL-1" value="KOSA 서점" style="shape=umlFrame;whiteSpace=wrap;html=1;pointerEvents=0;width=70;height=30;" vertex="1" parent="1">
          <mxGeometry x="60" y="40" width="720" height="720" as="geometry" />
        </mxCell>
        <mxCell id="rpM9JcjBu72Rt_czWlIL-48" value="Extends" style="rounded=0;orthogonalLoop=1;jettySize=auto;html=1;entryX=0.5;entryY=1;entryDx=0;entryDy=0;" edge="1" parent="1" source="rpM9JcjBu72Rt_czWlIL-2" target="rpM9JcjBu72Rt_czWlIL-16">
          <mxGeometry x="-0.8229" y="-25" relative="1" as="geometry">
            <mxPoint as="offset" />
          </mxGeometry>
        </mxCell>
        <mxCell id="rpM9JcjBu72Rt_czWlIL-2" value="?할인가로 조회" style="ellipse;whiteSpace=wrap;html=1;" vertex="1" parent="1">
          <mxGeometry x="280" y="672.5" width="140" height="50" as="geometry" />
        </mxCell>
        <mxCell id="rpM9JcjBu72Rt_czWlIL-12" value="ISBN으로 검색하기" style="ellipse;whiteSpace=wrap;html=1;" vertex="1" parent="1">
          <mxGeometry x="160" y="260" width="140" height="50" as="geometry" />
        </mxCell>
        <mxCell id="rpM9JcjBu72Rt_czWlIL-13" value="전체책 목록 조회하기" style="ellipse;whiteSpace=wrap;html=1;" vertex="1" parent="1">
          <mxGeometry x="170" y="330" width="140" height="50" as="geometry" />
        </mxCell>
        <mxCell id="rpM9JcjBu72Rt_czWlIL-14" value="신규로 책 등록하기" style="ellipse;whiteSpace=wrap;html=1;" vertex="1" parent="1">
          <mxGeometry x="370" y="85" width="140" height="50" as="geometry" />
        </mxCell>
        <mxCell id="rpM9JcjBu72Rt_czWlIL-47" value="include" style="rounded=0;orthogonalLoop=1;jettySize=auto;html=1;entryX=0.5;entryY=1;entryDx=0;entryDy=0;" edge="1" parent="1" source="rpM9JcjBu72Rt_czWlIL-15" target="rpM9JcjBu72Rt_czWlIL-14">
          <mxGeometry relative="1" as="geometry" />
        </mxCell>
        <mxCell id="rpM9JcjBu72Rt_czWlIL-15" value="특정한 책 삭제하기" style="ellipse;whiteSpace=wrap;html=1;" vertex="1" parent="1">
          <mxGeometry x="160" y="190" width="140" height="50" as="geometry" />
        </mxCell>
        <mxCell id="rpM9JcjBu72Rt_czWlIL-39" value="Include" style="rounded=0;orthogonalLoop=1;jettySize=auto;html=1;entryX=0.5;entryY=1;entryDx=0;entryDy=0;" edge="1" parent="1" source="rpM9JcjBu72Rt_czWlIL-16" target="rpM9JcjBu72Rt_czWlIL-14">
          <mxGeometry x="0.0571" y="-25" relative="1" as="geometry">
            <mxPoint as="offset" />
          </mxGeometry>
        </mxCell>
        <mxCell id="rpM9JcjBu72Rt_czWlIL-16" value="책 검색하기" style="ellipse;whiteSpace=wrap;html=1;" vertex="1" parent="1">
          <mxGeometry x="370" y="407.5" width="140" height="50" as="geometry" />
        </mxCell>
        <mxCell id="rpM9JcjBu72Rt_czWlIL-17" value="제목으로 검색하기" style="ellipse;whiteSpace=wrap;html=1;" vertex="1" parent="1">
          <mxGeometry x="280" y="507.5" width="140" height="50" as="geometry" />
        </mxCell>
        <mxCell id="rpM9JcjBu72Rt_czWlIL-18" value="저자로 검색하기" style="ellipse;whiteSpace=wrap;html=1;" vertex="1" parent="1">
          <mxGeometry x="460" y="507.5" width="140" height="50" as="geometry" />
        </mxCell>
        <mxCell id="rpM9JcjBu72Rt_czWlIL-19" value="출판사로 검색하기" style="ellipse;whiteSpace=wrap;html=1;" vertex="1" parent="1">
          <mxGeometry x="280" y="592.5" width="140" height="50" as="geometry" />
        </mxCell>
        <mxCell id="rpM9JcjBu72Rt_czWlIL-20" value="가격대별로 검색하기" style="ellipse;whiteSpace=wrap;html=1;" vertex="1" parent="1">
          <mxGeometry x="460" y="592.5" width="140" height="50" as="geometry" />
        </mxCell>
        <mxCell id="rpM9JcjBu72Rt_czWlIL-21" value="사용자" style="shape=umlActor;verticalLabelPosition=bottom;verticalAlign=top;html=1;" vertex="1" parent="1">
          <mxGeometry x="-140" y="40" width="90" height="140" as="geometry" />
        </mxCell>
        <mxCell id="rpM9JcjBu72Rt_czWlIL-42" style="rounded=0;orthogonalLoop=1;jettySize=auto;html=1;entryX=0;entryY=0.5;entryDx=0;entryDy=0;endArrow=none;startFill=0;" edge="1" parent="1" source="rpM9JcjBu72Rt_czWlIL-22" target="rpM9JcjBu72Rt_czWlIL-13">
          <mxGeometry relative="1" as="geometry" />
        </mxCell>
        <mxCell id="rpM9JcjBu72Rt_czWlIL-44" style="rounded=0;orthogonalLoop=1;jettySize=auto;html=1;entryX=0;entryY=0.5;entryDx=0;entryDy=0;endArrow=none;startFill=0;" edge="1" parent="1" source="rpM9JcjBu72Rt_czWlIL-22" target="rpM9JcjBu72Rt_czWlIL-15">
          <mxGeometry relative="1" as="geometry" />
        </mxCell>
        <mxCell id="rpM9JcjBu72Rt_czWlIL-45" style="rounded=0;orthogonalLoop=1;jettySize=auto;html=1;entryX=0;entryY=0.5;entryDx=0;entryDy=0;endArrow=none;startFill=0;" edge="1" parent="1" source="rpM9JcjBu72Rt_czWlIL-22" target="rpM9JcjBu72Rt_czWlIL-12">
          <mxGeometry relative="1" as="geometry" />
        </mxCell>
        <mxCell id="rpM9JcjBu72Rt_czWlIL-22" value="도서관리자" style="shape=umlActor;verticalLabelPosition=bottom;verticalAlign=top;html=1;" vertex="1" parent="1">
          <mxGeometry x="-280" y="250" width="90" height="140" as="geometry" />
        </mxCell>
        <mxCell id="rpM9JcjBu72Rt_czWlIL-23" value="일반사용자" style="shape=umlActor;verticalLabelPosition=bottom;verticalAlign=top;html=1;" vertex="1" parent="1">
          <mxGeometry x="-180" y="495" width="90" height="140" as="geometry" />
        </mxCell>
      </root>
    </mxGraphModel>
  </diagram>
</mxfile>
